<svg xmlns="http://www.w3.org/2000/svg" viewBox="0 0 96 96" width="96" height="96">
  <rect width="96" height="96" rx="20" fill="#4e37ff" />
  <path d="M16.06 19.80L5.98 19.80L5.98 72L16.06 72L16.06 51.05L35.42 51.05L28.66 72L40.03 72L41.83 53.06C41.98 47.81 38.74 44.71 33.12 44.71L27.36 44.71L27.36 44.14C29.38 44.14 30.82 43.27 31.82 41.47L43.92 19.80L33.12 19.80L20.45 43.27L16.06 43.27M62.86 72L75.17 72L90.50 19.80L80.42 19.80L69.34 57.17L68.69 57.17L57.60 19.80L47.45 19.80" fill="#ffffff" transform="translate(-0.24, 2.10)" />
</svg>